<svg viewBox="0 0 1024 1024" version="1.1" xmlns="http://www.w3.org/2000/svg" xmlns:xlink="http://www.w3.org/1999/xlink" width="25" height="25">
								<g>
									<path d="M879.579261 876.241748c0-5.332449-0.683569-10.268878-1.974981-14.915711-7.861038-21.807678-22.25691-32.737612-43.255153-32.737612-17.698081 0-38.302351 8.633634-61.922305 25.790386l-130.699738-48.602951 132.63788-48.675606c22.326495 14.57495 42.930765 21.878287 61.956074 21.878287 20.963451 0 34.712593-10.946306 41.282219-32.736589 1.291412-4.64888 1.939165-9.637498 1.939165-14.932084 0-27.730575-17.662265-42.662659-53.05638-44.620243 14.393825-14.554484 21.647019-28.824489 21.647019-42.715871 0-14.520715-7.576559-26.814716-22.650883-36.739762-7.826246-3.931542-16.047488-5.941316-24.553209-5.941316-28.824489 0-48.497551 23.474644-58.978253 70.483284l-229.988068 86.383416-229.952252-84.374666c-10.481725-48.316425-30.153764-72.492034-58.978253-72.492034-8.506744 0-16.692171 2.009773-24.588001 5.941316-14.359033 9.925047-21.61018 22.219047-21.61018 36.739762 0 13.891382 7.251148 28.16241 21.61018 42.715871-36.005029 1.956561-54.024427 16.889669-54.024427 44.620243 0 5.294586 0.682545 10.3006 1.974981 14.932084 7.179516 21.790282 20.962427 32.736589 41.281195 32.736589 18.952654 0 39.629579-7.303336 61.885466-21.878287l133.678582 48.675606-131.739417 47.598065c-22.901593-16.511046-43.219337-24.785499-60.880579-24.785499-20.963451 0-35.753295 10.930957-44.224224 32.737612-1.328251 4.646833-1.974981 9.583263-1.974981 14.915711 0 27.764344 18.020422 42.679032 54.024427 44.635593-14.359033 14.556531-21.61018 28.825512-21.61018 42.735313 0 14.501272 7.251148 26.741038 21.61018 36.722366 9.188266 5.293563 18.019399 7.896854 26.562982 7.896854 26.850531 0 46.198182-23.153326 58.009182-69.458955l228.947366-84.394109 229.018997 84.394109c11.774161 46.305629 31.445176 69.458955 58.942437 69.458955 7.896854 0 16.366759-2.603291 25.559119-7.896854 15.0733-9.981329 22.650883-22.221094 22.650883-36.722366 0-13.909801-7.253194-28.178783-21.647019-42.735313C861.881181 918.92078 879.579261 904.006092 879.579261 876.241748zM352.798627 590.360695l0 14.951527c0 18.503423 6.17463 34.065863 18.666128 46.611597 12.420891 12.598946 27.820626 19.547195 46.163389 20.874423 19.025309 1.327228 33.096792-1.9934 42.286082-9.92607 14.358009 10.553357 30.440289 15.847943 48.137347 15.847943 16.368806 0 31.480992-4.936429 45.193295-14.860453 9.188266 7.252171 22.615067 10.265808 40.313148 8.93858 18.34174-1.9934 33.741475-9.102309 46.197158-21.341051 12.421914-12.295024 18.667152-27.623128 18.667152-46.14497l0-10.894118c70.715575-18.558681 125.45734-49.646724 164.118871-93.367481 37.367049-41.657772 55.998385-90.943268 55.998385-147.857513 0-12.598946-1.291412-25.827225-3.911076-39.737026-13.103436-84.624353-51.762921-154.48035-115.947755-209.383798C691.156868 45.221948 608.954681 15.768125 511.964696 15.768125c-96.993055 0-179.196265 29.112038-246.681262 87.281879-64.182788 55.640228-102.520955 125.781728-114.940822 210.407104-2.656503 13.909801-3.947915 27.13808-3.947915 39.737026 0 55.567573 17.983583 104.171548 54.060243 145.883555C236.458945 540.751834 287.252795 571.228963 352.798627 590.360695zM588.136539 243.530502c19.348674-22.811542 42.788525-34.226522 70.284763-34.226522 28.180829 0 51.907207 11.414981 71.28965 34.226522 19.277042 22.795169 28.968775 50.417273 28.968775 82.83152 0 32.414247-9.691733 60.054771-28.968775 82.884732-19.382443 22.848381-43.10882 34.227546-71.28965 34.227546-27.495214 0-50.935066-11.380188-70.284763-34.227546-19.312858-22.829961-29.004591-50.470485-29.004591-82.884732C559.131949 293.947775 568.823682 266.325671 588.136539 243.530502zM483.963968 471.060589c9.512654-12.403494 18.810415-18.631336 27.999704-18.631336s17.876136 6.856152 26.060539 20.658506c8.184403 13.730723 12.313443 26.797319 12.313443 39.253002 0 18.971074-12.45773 28.429493-37.371142 28.429493-16.366759 0-28.500101-4.27128-36.397978-12.743232-4.594645-5.294586-6.820336-11.811-6.820336-19.671015C469.749222 495.937163 474.48713 483.516272 483.963968 471.060589zM285.960359 243.530502c19.635199-22.811542 43.219337-34.226522 70.714552-34.226522 27.532053 0 51.116191 11.414981 70.78823 34.226522 19.671015 22.795169 29.506011 50.417273 29.506011 82.83152 0 32.414247-9.834996 60.054771-29.506011 82.884732-19.672038 22.848381-43.256176 34.227546-70.78823 34.227546-27.496238 0-51.080376-11.380188-70.714552-34.227546-19.672038-22.829961-29.507034-50.470485-29.507034-82.884732C256.453325 293.947775 266.289344 266.325671 285.960359 243.530502z"></path>
								</g>
							</svg>