<svg class="m-three-svg-5" viewBox="0 0 1024 1024" version="1.1" xmlns="http://www.w3.org/2000/svg" xmlns:xlink="http://www.w3.org/1999/xlink" width="40" height="40">
							<path d="M481.557698 549.995798"></path>
							<path d="M582.417337 1024.000001"></path>
							<path d="M36.543934 599.629435c0 188.616404 165.236326 255.935847 224.762735 274.066579l0 67.661919 501.381784 0 0.004879 0 0-67.501901c59.848395-17.876071 224.762735-85.216979 224.762735-284.470626L987.456066 436.186472 36.543934 436.186472 36.543934 599.629435 36.543934 599.629435zM947.763012 599.624556c0 197.62713-202.453992 226.212647-210.708539 227.756228l-12.163261 9.972781 0 64.306435-425.782426 0 0-64.306435-11.801271-9.907408c-8.32675-1.666521-211.06565-42.830953-211.06565-227.821601l0-29.719297 871.521146 0 0 14.857209L947.763012 599.624556 947.763012 599.624556zM76.236012 540.19084 76.236012 475.878551l871.527 0 0 64.31229L81.114586 540.19084 76.236012 540.19084zM51.401143 124.165563l44.576506 0 0 44.576506L51.401143 168.742069 51.401143 124.165563 51.401143 124.165563 51.401143 124.165563zM51.401143 228.171882l44.576506 0 0 44.576506-42.147952-0.151236L51.401143 228.171882 51.401143 228.171882 51.401143 228.171882zM115.407058 408.418605c54.43708-11.790538 66.900861-52.110976 69.712871-76.242355L185.11993 124.165563c0-33.007456 42.743138-36.290736 47.554388-36.348304l-0.004879-52.799831c-31.205311 0-92.394338 28.730898-92.394338 95.144878l0 193.168114c-1.015719 5.115673-7.032952 27.243909-35.658473 33.436771L115.407058 408.418605 115.407058 408.418605 115.407058 408.418605zM219.142129 408.418605c54.43708-11.790538 67.16528-52.110976 69.987047-76.242355L289.129176 124.165563c0-33.007456 42.468962-36.290736 47.285091-36.348304l-0.010733-52.799831c-31.211165 0-92.399216 28.730898-92.399216 95.144878l0 193.168114c-1.013768 5.115673-7.027098 27.243909-35.64774 33.436771L219.142129 408.418605 219.142129 408.418605 219.142129 408.418605zM322.878176 408.418605c54.43708-11.790538 67.434577-52.110976 70.256344-76.242355L393.13452 124.165563c0-33.007456 42.199665-36.290736 47.010915-36.348304l-0.004879-52.799831c-31.211165 0-92.399216 28.730898-92.399216 95.144878l0 193.168114c-1.009865 5.115673-7.031977 27.243909-35.64774 33.436771L322.878176 408.418605 322.878176 408.418605 322.878176 408.418605zM322.878176 408.418605"></path>
							<path d="M437.706148 121.238419l534.892709 0 0 39.028592-534.892709 0 0-39.028592Z"></path>
							<path d="M437.706148 225.244738l534.892709 0 0 39.028592-534.892709 0 0-39.028592Z"></path>
						</svg>