<svg class="m-three-svg-7" viewBox="0 0 1024 1024" version="1.1" xmlns="http://www.w3.org/2000/svg" xmlns:xlink="http://www.w3.org/1999/xlink" width="40" height="40">
							<path d="M199.744 433.344C176.128 480.32 162.688 533.376 162.688 589.696c0 59.392 14.912 115.392 41.216 164.352l275.584-159.232L199.744 433.344zM269.824 514.56c10.624 0 19.328 4.864 19.328 10.816 0 5.952-8.704 10.752-19.328 10.752s-19.2-4.864-19.2-10.752C250.624 519.36 259.2 514.56 269.824 514.56zM231.872 689.6c-16.832 0-30.464-13.632-30.464-30.464 0-16.896 13.632-30.464 30.464-30.464 16.896 0 30.592 13.568 30.592 30.464C262.464 675.968 248.768 689.6 231.872 689.6zM304.512 621.952c-19.136 0-34.688-12.096-34.688-27.136 0-14.912 15.552-27.072 34.688-27.072 19.2 0 34.624 12.096 34.624 27.072C339.136 609.856 323.712 621.952 304.512 621.952z"></path>
							<path d="M495.168 224.192 495.168 161.664C347.84 166.976 219.2 247.104 146.24 365.12l54.272 31.296C262.592 297.024 371.008 229.504 495.168 224.192z"></path>
							<path d="M871.616 820.032l-54.144-31.296c-62.72 96.064-169.28 161.088-291.008 166.272L526.464 1017.6C671.424 1012.352 798.208 934.848 871.616 820.032z"></path>
							<path d="M836.544 423.68c25.536 49.856 40 106.24 40 166.016 0 62.208-15.616 120.832-43.136 172.16l54.208 31.36c32.96-60.608 51.52-129.92 51.52-203.52 0-71.168-17.472-138.24-48.256-197.376L836.544 423.68z"></path>
							<path d="M188.224 761.856c-27.52-51.392-43.2-110.016-43.2-172.16 0-59.776 14.528-116.16 40.064-166.016l-54.4-31.36c-30.72 59.072-48.256 126.208-48.256 197.376 0 73.6 18.752 142.848 51.52 203.456L188.224 761.856z"></path>
							<path d="M495.168 1017.6l0-62.592c-121.728-5.184-228.288-70.144-290.88-166.272l-54.4 31.296C223.488 934.848 350.272 1012.352 495.168 1017.6z"></path>
							<path d="M214.976 406.016l280.192 161.728L495.168 241.92C377.024 247.168 273.92 311.488 214.976 406.016zM311.616 385.792c-6.08 0-10.944-4.864-10.944-10.88 0-6.08 4.864-11.008 10.944-11.008 6.016 0 10.944 4.928 10.944 11.008C322.56 380.928 317.632 385.792 311.616 385.792zM349.888 469.248c-14.72 0-26.624-11.904-26.624-26.624s11.904-26.688 26.624-26.688 26.752 11.968 26.752 26.688S364.608 469.248 349.888 469.248zM441.472 455.552c-4.288 0-7.872-4.992-7.872-11.136 0-6.08 3.584-11.072 7.872-11.072s7.936 4.992 7.936 11.072C449.408 450.56 445.824 455.552 441.472 455.552zM421.952 404.864c-25.088 0-45.312-20.352-45.312-45.44 0-25.152 20.224-45.568 45.312-45.568 25.216 0 45.568 20.416 45.568 45.568C467.52 384.448 447.104 404.864 421.952 404.864z"></path>
							<path d="M821.888 433.28l-279.68 161.536 275.712 159.232c26.176-49.024 41.088-105.024 41.088-164.352C858.944 533.376 845.504 480.32 821.888 433.28zM687.232 551.936c-7.296 0-13.248-6.016-13.248-13.312 0-7.424 5.952-13.312 13.248-13.312 7.36 0 13.376 5.888 13.376 13.312C700.608 545.92 694.656 551.936 687.232 551.936zM728.384 652.16c-16.192 0-29.248-13.056-29.248-29.248 0-16.192 13.056-29.312 29.248-29.312 16.128 0 29.312 13.12 29.312 29.312C757.696 639.168 744.512 652.16 728.384 652.16zM797.184 621.952c-19.328 0-34.944-15.744-34.944-35.008 0-19.328 15.616-35.008 34.944-35.008 19.456 0 35.008 15.68 35.008 35.008C832.192 606.272 816.64 621.952 797.184 621.952z"></path>
							<path d="M219.968 780.864c59.584 90.432 160.128 151.488 275.264 156.544L495.232 621.952 219.968 780.864zM323.264 811.648c-8.896 0-16-7.168-16-16 0-8.832 7.104-15.936 16-15.936 8.768 0 15.872 7.104 15.872 15.936C339.136 804.48 332.032 811.648 323.264 811.648zM429.696 903.232c-17.408 0-31.488-10.432-31.488-23.168 0-12.864 14.08-23.168 31.488-23.168 17.344 0 31.488 10.304 31.488 23.168C461.184 892.8 447.04 903.232 429.696 903.232zM430.08 788.8c-17.6 0-31.872-14.272-31.872-31.872s14.272-31.872 31.872-31.872c17.536 0 31.808 14.272 31.808 31.872S447.616 788.8 430.08 788.8z"></path>
							<path d="M526.528 621.952l0 315.456c115.136-5.12 215.68-66.112 275.328-156.544L526.528 621.952zM561.472 721.856C561.472 704 576 689.6 593.664 689.6c17.728 0 32.128 14.4 32.128 32.256 0 17.728-14.4 32.192-32.128 32.192C576 754.048 561.472 739.584 561.472 721.856zM616.64 862.784c-16.384 0-29.632-13.312-29.632-29.568 0-16.256 13.248-29.44 29.632-29.44 16.256 0 29.504 13.248 29.504 29.44C646.144 849.472 632.896 862.784 616.64 862.784z"></path>
							<path d="M923.968 114.112c8.768-3.584 8.832-15.936 0.192-19.712-14.656-6.528-32.96-12.032-44.608-6.72l11.776-68.608c1.6-9.344-8.768-16-16.576-10.688l-57.6 39.04c0.128-12.928-12.672-27.2-24.704-37.888-7.04-6.272-18.112-1.152-17.856 8.256 0.768 27.008-4.992 58.816-8.128 73.984 7.68 2.88 15.168 6.656 22.4 11.2l51.776 33.472c7.232 4.608 13.632 9.792 19.52 15.68C872.448 142.976 899.072 124.48 923.968 114.112z"></path>
							<path d="M829.44 153.728l-51.968-33.408c-22.592-14.528-48.384-18.304-72.192-13.248C672.896 114.048 644.416 137.664 633.728 172.8L604.864 266.112l68.864 72.768L591.168 310.4 527.872 515.904c-6.656 21.632 13.056 39.232 31.872 35.2C564.032 550.144 568.256 548.096 572.16 544.64l70.4-62.336L604.928 438.272l65.792 19.136 144.704-128.128-62.336-69.056 101.056 32.064C886.912 248.768 877.248 184.576 829.44 153.728z"></path>
						</svg>