<svg class="m-three-svg-9" viewBox="0 0 1024 1024" version="1.1" xmlns="http://www.w3.org/2000/svg" xmlns:xlink="http://www.w3.org/1999/xlink" width="40" height="40">
							<path d="M306.2 449.4c30.3 17.5 169.7 22.9 169.7 22.9s-74.4-118-104.7-135.5c-30.3-17.5-69.4-6.5-87.4 24.6C265.9 392.5 275.9 431.9 306.2 449.4zM729.6 451.7c30.3-17.5 40.3-56.9 22.4-88-17.9-31.1-57.1-42.1-87.4-24.6-30.3 17.5-104.7 135.5-104.7 135.5S699.3 469.2 729.6 451.7zM304.9 543.7c-30.3 17.5-40.3 56.9-22.4 88 17.9 31.1 57.1 42.1 87.4 24.6 30.3-17.5 104.7-135.5 104.7-135.5S335.2 526.2 304.9 543.7zM518.6 105c-217.5 0-393.8 176.3-393.8 393.8s176.3 393.8 393.8 393.8c217.5 0 393.8-176.3 393.8-393.8S736.1 105 518.6 105zM518.6 816.2c-175.3 0-317.3-142.1-317.3-317.3s142.1-317.3 317.3-317.3c175.3 0 317.3 142.1 317.3 317.3S693.8 816.2 518.6 816.2zM450.9 704.6c0 35 29.1 63.4 65 63.4 35.9 0 65-28.4 65-63.4s-65-158.4-65-158.4S450.9 669.6 450.9 704.6zM728.3 546c-30.3-17.5-169.7-22.9-169.7-22.9s74.4 118 104.7 135.5c30.3 17.5 69.4 6.5 87.4-24.6C768.6 602.9 758.6 563.5 728.3 546zM583.6 290.8c0-35-29.1-63.4-65-63.4-35.9 0-65 28.4-65 63.4s65 158.4 65 158.4S583.6 325.7 583.6 290.8z"></path>
						</svg>