<svg class="m-three-svg-6" viewBox="0 0 1024 1024" version="1.1" xmlns="http://www.w3.org/2000/svg" xmlns:xlink="http://www.w3.org/1999/xlink" width="40" height="40">
							<path d="M832 992.096H192a32 32 0 0 1-32-32V352c0-8.48 3.36-16.64 9.376-22.624l128-128A31.872 31.872 0 0 1 320 192h256a32 32 0 1 1 0 64h-242.752L224 365.248v562.848h576V365.248l-118.624-118.624a31.968 31.968 0 1 1 45.248-45.248l128 128A31.904 31.904 0 0 1 864 352v608.096a32 32 0 0 1-32 32z"></path>
							<path d="M320 256a32 32 0 0 1-32-32V64a32 32 0 0 1 32-32h384a32 32 0 0 1 32 32v96a32 32 0 1 1-64 0V96H352v128a32 32 0 0 1-32 32zM448.032 384H224a32 32 0 1 1 0-64h224.032a32 32 0 0 1 0 64z"></path>
							<path d="M608 864.128a32 32 0 0 1-32-32V352a32 32 0 0 1 6.4-19.2l96-128a32 32 0 0 1 51.168 38.4L640 362.656v469.44a32 32 0 0 1-32 32.032z"></path>
						</svg>