<svg class="m-three-svg-1" viewBox="0 0 1024 1024" version="1.1" xmlns="http://www.w3.org/2000/svg" xmlns:xlink="http://www.w3.org/1999/xlink" width="40" height="40">
							<path d="M855.075683 407.266657c-12.103666-26.330692-35.273365-46.445822-63.539128-54.525847L958.708971 62.303998l-55.600319-31.873941-161.860435 321.277214c-1.381463 0.327458-2.817162 0.503467-4.178159 0.883113-5.2864-9.480932-12.208043-17.86181-20.161179-25.1324L840.413751 61.201897l-57.821917-24.844851L676.237575 304.721143c-8.506744-2.351558-17.458627-3.63683-26.716478-3.63683-10.627035 0-20.852934 1.683339-30.464849 4.748141-18.34788-20.444635-44.893466-33.382295-74.526367-33.382295-16.075117 0-31.211862 3.879354-44.676525 10.605545-18.321274-23.820522-47.028083-39.238676-79.403444-39.238676-48.562019 0-89.038896 34.545794-98.240465 80.398098-17.364483-14.435781-39.672558-23.130813-64.019059-23.130813-50.596352 0-92.320639 37.531801-99.132788 86.250386-1.942235-0.163729-3.880377-0.347924-5.857405-0.347924-44.806485 0-81.129762 42.733267-81.129762 95.445816l-0.072655 0c-4.324492 20.162202-6.708795 40.86778-6.708795 62.039985 0 147.103336 108.859313 273.474488 264.48679 328.509942l0 86.681198 343.606779 0 0-84.765569c158.569482-53.974285 270.012643-181.587732 270.012643-330.425571 0-14.716166-1.175779-29.202089-3.330862-43.441395C937.569512 453.080076 901.748678 414.127925 855.075683 407.266657zM101.112885 482.432591c-0.105401-1.602498-0.406253-3.137457-0.406253-4.7727 0-34.263361 23.502273-62.039985 52.495608-62.039985 2.062985 0 4.02057 0.444115 6.021134 0.716314 4.713348 0.883113 3.366677 0.518816 8.026814 1.50119l33.145911 7.326872c-4.291746-8.714476-6.92676-18.395976-6.92676-28.782533 0-35.993772 28.977985-65.172325 64.724117-65.172325 21.60404 0 41.910529 9.371438 53.66627 25.7515l47.063899 1.391696c-1.889023-6.118348-3.196809-12.493545-3.196809-19.238157 0-35.993772 28.977985-65.171302 64.724117-65.171302s64.72514 29.17753 64.72514 65.171302c0 0.050142-0.01535 0.098237-0.01535 0.149403l1.412163 0c10.523681-21.649066 32.406061-36.686551 57.958016-36.686551 29.011754 0 53.275367 19.348674 61.496609 45.832861 11.508102-10.583033 26.680663-17.200754 43.493583-17.200754 5.335519 0 10.441816 0.836041 15.401782 2.061962l-36.418444 91.89392 43.081191 0 30.742165-66.275449c7.450692 10.617825 15.529695 22.023596 15.529695 36.013215 0 2.565429-0.042979 2.679016-0.901533 5.018294l-12.44238 25.243941 45.334511 0 25.948999-45.081755c28.756951 5.346775 50.696636 29.876448 52.574403 59.948347 6.750751-2.433422 13.992689-3.829212 21.585621-3.829212 29.203112 0 53.880141 19.47761 61.938678 46.230927L101.112885 482.433614z"></path>
						</svg>