<svg class="m-three-svg-2" viewBox="0 0 1024 1024" version="1.1" xmlns="http://www.w3.org/2000/svg" xmlns:xlink="http://www.w3.org/1999/xlink" width="40" height="40">
							<path d="M68.266667 296.96v150.186667l638.293333 174.08v-170.666667L68.266667 296.96zM768 443.733333v409.6c6.826667 0 17.066667 3.413333 27.306667 3.413334 10.24 0 17.066667 0 30.72-3.413334 10.24 0 23.893333-6.826667 37.546666-10.24 13.653333-6.826667 27.306667-13.653333 37.546667-23.893333 10.24-10.24 17.066667-20.48 20.48-30.72 6.826667-13.653333 6.826667-23.893333 10.24-37.546667L955.733333 310.613333c-3.413333 10.24-10.24 20.48-17.066666 30.72-6.826667 10.24-13.653333 17.066667-20.48 27.306667-6.826667 10.24-17.066667 17.066667-30.72 23.893333-13.653333 10.24-27.306667 17.066667-40.96 23.893334-13.653333 6.826667-27.306667 10.24-37.546667 17.066666l-40.96 10.24zM78.506667 249.173333L948.906667 170.666667c-3.413333 20.48-6.826667 37.546667-13.653334 54.613333s-13.653333 30.72-23.893333 51.2c-10.24 17.066667-23.893333 34.133333-40.96 47.786667-20.48 17.066667-40.96 30.72-61.44 40.96-20.48 10.24-34.133333 17.066667-51.2 20.48-17.066667 3.413333-34.133333 6.826667-47.786667 6.826666L78.506667 249.173333z m522.24 0c-6.826667 0-13.653333 3.413333-20.48 6.826667-6.826667 6.826667-6.826667 10.24-6.826667 20.48 0 6.826667 3.413333 13.653333 6.826667 20.48 6.826667 6.826667 10.24 6.826667 20.48 6.826667 6.826667 0 13.653333-3.413333 20.48-6.826667 6.826667-6.826667 6.826667-10.24 6.826666-20.48 0-6.826667-3.413333-13.653333-6.826666-20.48-6.826667-6.826667-13.653333-6.826667-20.48-6.826667z m105.813333 47.786667c-6.826667 0-13.653333 3.413333-20.48 10.24-6.826667 6.826667-6.826667 13.653333-6.826667 20.48 0 6.826667 3.413333 13.653333 6.826667 20.48 6.826667 6.826667 10.24 6.826667 20.48 6.826667 6.826667 0 13.653333-3.413333 20.48-6.826667 6.826667-6.826667 6.826667-13.653333 6.826667-20.48 0-6.826667-3.413333-13.653333-6.826667-20.48-6.826667-6.826667-13.653333-10.24-20.48-10.24z m34.133333-75.093333c-6.826667 0-13.653333 3.413333-20.48 6.826666-6.826667 6.826667-6.826667 10.24-6.826666 20.48 0 6.826667 3.413333 13.653333 6.826666 20.48 6.826667 6.826667 10.24 6.826667 20.48 6.826667s13.653333-3.413333 20.48-6.826667c6.826667-6.826667 6.826667-10.24 6.826667-20.48 0-6.826667-3.413333-13.653333-6.826667-20.48-6.826667-3.413333-13.653333-6.826667-20.48-6.826666z m95.573334 6.826666c-6.826667 0-13.653333 3.413333-17.066667 6.826667-3.413333 3.413333-6.826667 10.24-6.826667 20.48 0 6.826667 3.413333 13.653333 6.826667 20.48 3.413333 6.826667 10.24 6.826667 17.066667 6.826667s13.653333-3.413333 20.48-6.826667c6.826667-6.826667 6.826667-10.24 6.826666-20.48 0-6.826667-3.413333-13.653333-6.826666-20.48-6.826667-6.826667-13.653333-6.826667-20.48-6.826667z m-354.986667 20.48c-6.826667 0-13.653333 3.413333-20.48 6.826667-6.826667 6.826667-6.826667 10.24-6.826667 20.48 0 6.826667 3.413333 13.653333 6.826667 20.48 6.826667 6.826667 10.24 6.826667 20.48 6.826667 6.826667 0 13.653333-3.413333 20.48-6.826667 6.826667-6.826667 6.826667-10.24 6.826667-20.48 0-6.826667-3.413333-13.653333-6.826667-20.48-6.826667-6.826667-13.653333-6.826667-20.48-6.826667z m225.28 436.906667L68.266667 501.76v81.92c0 23.893333 3.413333 40.96 13.653333 54.613333 10.24 13.653333 23.893333 23.893333 47.786667 30.72 3.413333 0 13.653333 3.413333 30.72 10.24 17.066667 6.826667 40.96 13.653333 68.266666 20.48 27.306667 10.24 58.026667 17.066667 92.16 30.72 34.133333 10.24 68.266667 20.48 105.813334 34.133334 81.92 27.306667 177.493333 54.613333 279.893333 88.746666v-167.253333z"></path>
						</svg>