<svg class="m-three-svg-3" viewBox="0 0 1024 1024" version="1.1" xmlns="http://www.w3.org/2000/svg" xmlns:xlink="http://www.w3.org/1999/xlink" width="40" height="40">
							<path d="M726.093094 64.359147 726.093094 0.25163 489.880991 0.25163C426.132558 0.25163 399.86945 134.041231 392.933496 177.631246L18.859561 177.631246 64.138093 897.989147 496.739013 897.989147 543.498255 177.631246 457.617114 177.631246C459.955076 111.66554 489.880991 64.359147 489.880991 64.359147L726.093094 64.359147 726.093094 64.359147ZM335.029968 375.373515 79.334847 375.373515 73.100282 221.143836 383.191988 221.143836 335.029968 375.373515 335.029968 375.373515ZM483.724358 375.373515 397.765285 375.373515 443.355546 221.143836 489.958923 221.143836 483.724358 375.373515 483.724358 375.373515Z"></path>
							<path d="M933.002738 450.86244 653.304542 450.86244C592.673391 450.86244 543.498255 499.639898 543.498255 560.031038L543.498255 569.167133 1042.80903 569.167133 1042.80903 560.031038C1042.80903 499.717323 993.711821 450.86244 933.002738 450.86244L933.002738 450.86244Z"></path>
							<path d="M543.498255 800.279381C543.498255 860.438241 592.673391 909.293131 653.304542 909.293131L933.002738 909.293131C993.711821 909.293131 1042.80903 860.438241 1042.80903 800.279381L1042.80903 763.58015 543.498255 763.58015 543.498255 800.279381 543.498255 800.279381Z"></path>
							<path d="M977.579882 599.904675C958.642394 599.904675 941.57527 607.956827 929.651664 620.8093 917.805984 608.034251 900.73886 599.904675 881.72344 599.904675 864.656316 599.904675 849.069903 606.485761 837.535956 617.170347 825.846142 606.485761 810.337662 599.904675 793.192605 599.904675 774.021318 599.904675 756.798327 608.034251 745.030588 621.196422 733.029048 608.034251 715.806065 599.904675 696.634771 599.904675 677.463483 599.904675 660.084632 608.111676 648.161025 621.351272 636.237418 608.111676 618.858567 599.904675 599.687278 599.904675 563.682661 599.904675 534.458135 628.861452 534.458135 664.709013 534.458135 700.479147 563.682661 729.435928 599.687278 729.435928 618.858567 729.435928 636.237418 721.151502 648.161025 708.066755 660.0067 721.151502 677.307619 729.435928 696.478911 729.435928 715.650198 729.435928 732.873182 721.306351 744.874721 708.221604 756.642468 721.306351 773.865452 729.435928 793.036745 729.435928 810.259729 729.435928 825.690283 722.854844 837.380089 712.092829 848.914036 722.854844 864.578383 729.435928 881.567573 729.435928 900.583001 729.435928 917.650125 721.383772 929.495798 708.531302 941.419404 721.306351 958.486528 729.435928 977.424022 729.435928 1013.506567 729.435928 1042.653164 700.479147 1042.653164 664.709013 1042.80903 628.861452 1013.662433 599.904675 977.579882 599.904675L977.579882 599.904675Z"></path>
							<path d="M0 940.185518C12.547063 981.297951 50.266185 1011.106393 94.843329 1011.106393L996.20565 1011.106393C1040.626927 1011.106393 1078.423982 981.297951 1091.04898 940.185518L0 940.185518 0 940.185518Z"></path>
						</svg>