<svg class="m-three-svg-8" viewBox="0 0 1024 1024" version="1.1" xmlns="http://www.w3.org/2000/svg" xmlns:xlink="http://www.w3.org/1999/xlink" width="40" height="40">
							<path d="M495.602006 166.596797l0.455105-118.213469 0 0c0.028444-11.974945-9.48609-21.660144-21.361481-21.688588l-0.07111 0-116.592158 0c-11.832725 0-21.432591 9.685199-21.432591 21.617478 0 0.611547 0 1.308426 0.028444 1.919973L336.443327 208.352662l-18.232636 0L318.025805 125.296038c0.113776-0.639991 0.14222-1.279982 0.14222-1.877307 0-11.974945-9.585645-21.660144-21.432591-21.660144L180.200164 101.758587 180.114832 101.758587C168.282107 101.801253 158.724907 111.415341 158.625352 123.248066l21.503701 0.170664L158.724907 123.319176 156.477827 497.799308C156.449383 498.51041 156.449383 499.207289 156.449383 499.91839c0 1.877307 0.21333 3.768837 0.739545 5.575034l91.134734 500.729045 20.963264-3.854169-21.077041 3.854169C250.101415 1016.718323 259.132401 1023.985778 269.286927 1023.985778l0.042666 0L773.543034 1023.985778c11.206955 0 20.479716-8.689657 21.389925-19.782836l72.290552-501.269482 0.085332 0c1.692421-11.73317-6.428355-22.769462-18.204192-24.461882-0.938654-0.14222-1.991083-0.170664-3.057735-0.170664l-0.14222 0-10.993625 0-0.497771-286.260913c0.07111-0.611547 0.099554-1.208872 0.099554-1.848863 0-11.974945-9.628311-21.660144-21.461035-21.660144l-62.207136 0-0.28444-144.965098c0.099554-0.639991 0.099554-1.351092 0.099554-1.948417 0-11.946501-9.557201-21.617478-21.432591-21.617478L612.549715 0l0 0c-11.832725 0.028444-21.432591 9.742087-21.389925 21.660144l0.099554 0 0.355551 115.098846-62.562687 0 0 0c-11.846947 0-21.432591 9.742087-21.432591 21.645922l0.099554 0 0 8.191886L495.602006 166.596797 495.602006 166.596797 495.602006 166.596797zM199.328787 478.300912l1.962639-333.250483 74.054083 0 0.14222 80.980209c-0.170664 1.237316-0.355551 2.631075-0.355551 3.982167l0.170664 0L275.91439 478.300912 199.328787 478.300912 199.328787 478.300912 199.328787 478.300912zM318.637352 481.65731 318.239136 251.587617l73.485202 0 0.91021 299.330954c-23.03968-17.052208-46.264246-38.996792-69.659477-65.435536l0.099554-0.042666C321.723532 483.961278 320.244441 482.652852 318.637352 481.65731L318.637352 481.65731 318.637352 481.65731zM403.116179 608.517771c0.568881 0.355551 1.26576 0.696879 2.005305 1.066652 27.619172 14.734018 55.579673 23.25301 83.639727 24.746323 54.697907 2.943959 108.642047-20.309051 161.732865-75.006958 8.049666-2.090638 14.222025-8.789211 15.701115-17.080652 5.68881-6.599019 11.37762-13.468257 16.966875-20.735712l138.152748 0L755.054402 980.708157 287.121346 980.708157 203.524284 521.507424l94.206692 0C332.53227 559.679338 367.632227 589.204261 403.116179 608.517771L403.116179 608.517771 403.116179 608.517771zM435.428619 576.688879l-0.810655-344.884099c0-0.611547 0.042666-1.251538 0.042666-1.834641 0-1.422202-0.127998-2.744851-0.312885-4.053277l-0.042666-16.056666 73.556312 0 0.839099 381.036486c-5.90214 0.568881-11.846947 0.668435-17.706421 0.327107C472.66188 590.228247 454.116359 585.26476 435.428619 576.688879L435.428619 576.688879 435.428619 576.688879zM551.380786 579.561728l-0.597325-389.399036c0.028444-0.682657 0.099554-1.279982 0.099554-1.948417 0-1.422202-0.14222-2.759073-0.426661-4.138609l0-4.039055 73.869196 0L623.785114 525.13404C599.479674 551.103457 575.344898 568.96632 551.380786 579.561728L551.380786 579.561728 551.380786 579.561728zM666.60763 479.111568l0.455105-318.772461c0.028444-0.597325 0.028444-1.308426 0.028444-1.991083 0-11.946501-9.585645-21.617478-21.432591-21.617478l-11.37762 0L633.968084 43.234955l73.869196 0 0.270218 125.31026-11.66206 0-0.042666 0c-11.832725 0.042666-21.517923 9.784753-21.389925 21.688588l0.028444 0 0.98132 288.06711-3.399064 0C670.532909 478.300912 668.57027 478.542687 666.60763 479.111568L666.60763 479.111568 666.60763 479.111568zM718.759795 478.300912l-0.881766-266.478077 73.869196 0L792.173886 478.300912 718.759795 478.300912 718.759795 478.300912 718.759795 478.300912zM391.525229 208.352662l-12.358939 0 0.184886-138.3803 73.869196 0-0.28444 96.624436-40.148776 0L412.730268 166.596797c-11.846947 0.07111-21.432591 9.742087-21.389925 21.717032l0.099554 0L391.525229 208.352662 391.525229 208.352662zM391.525229 208.352662"></path>
						</svg>