<svg width="81" height="39" xmlns="http://www.w3.org/2000/svg">
				<g>
					<path stroke="#000" d="m0.60639,3.223409c0,0 0.457851,0 0.686776,0c0.228925,0 0.457851,0 0.686776,0c0.228925,0 0.457851,0 0.686776,0c0.228925,0 0.686776,0 0.915701,0c0.228925,0 0.457851,0 0.915702,0c0.45785,0 0.686776,0 0.915702,0c0.228925,0 0.45785,0 0.686776,0c0.228925,0 0.457851,0 0.686776,0c0.228926,0 0.457851,0 0.686776,0c0.228925,0 0.457851,0 0.686776,0c0.228925,0 0.45785,0.678753 0.686775,0.678753c0.228926,0 0.457851,0 0.686776,0c0.228925,0 0.524901,-0.159984 0.686776,0c0.161874,0.159984 0.228925,0.226251 0.45785,0.226251c0.228925,0 0.457851,0 0.686776,0c0.228925,0 0.45785,0 0.686776,0c0.228925,0 0.45785,0 0.686775,0c0.228925,0 0.457851,0 0.686776,0c0.228925,0 0.45785,0 0.686776,0c0.228925,0 0.45785,0 0.686775,0c0.228926,0 0.457851,0 0.686776,0c0.228925,0 0.457851,0 0.686776,0c0.228925,0 0.45785,0 0.686775,0c0.228926,0 0.457852,0 0.686776,0c0.228926,0 0.686776,0.226252 0.686776,0c0,-0.678754 -0.616597,0.330056 -0.9157,0.452502c-0.211501,0.086583 -0.067052,0.292518 -0.228926,0.452502c-0.161874,0.159984 -0.067052,0.292518 -0.228926,0.452502c-0.161874,0.159983 -0.06705,0.292519 -0.228925,0.452503c-0.161874,0.159983 -0.141319,0.243473 -0.228925,0.452502c-0.123893,0.295611 -0.333957,0.383142 -0.45785,0.678753c-0.087606,0.209029 -0.067051,0.292518 -0.228926,0.452502c-0.161874,0.159983 -0.105032,0.383142 -0.228925,0.678753c-0.087606,0.209029 -0.067051,0.292519 -0.228925,0.452502c-0.161875,0.159984 -0.228925,0.452503 -0.228925,0.678754c0,0.226251 -0.228926,0.452502 -0.228926,0.678754c0,0.226251 -0.067051,0.518769 -0.228925,0.678753c-0.161874,0.159983 -0.067051,0.292519 -0.228925,0.452503c-0.161874,0.159983 -0.228925,0.226251 -0.228925,0.452502c0,0.226251 -0.228926,0.226251 -0.228926,0.452503c0,0.226251 -0.141319,0.469723 -0.228925,0.678753c-0.123893,0.295611 -0.228925,0.452503 -0.228925,0.678754c0,0.226251 -0.228925,0.226251 -0.228925,0.452503c0,0.226251 -0.105032,0.383141 -0.228926,0.678753c-0.087606,0.209028 -0.228925,0.452503 -0.228925,0.678754c0,0.226251 -0.067051,0.292518 -0.228925,0.452502c-0.161875,0.159984 -0.067051,0.292519 -0.228925,0.452503c-0.161874,0.159983 -0.067051,0.292518 -0.228925,0.452502c-0.161875,0.159984 -0.067051,0.292518 -0.228926,0.452503c-0.161874,0.159983 0.087606,0.469724 0,0.678753c-0.123893,0.295611 -0.067051,0.51877 -0.228925,0.678754c-0.161874,0.159983 -0.228925,0.226252 -0.228925,0.452502c0,0.226252 -0.228925,0.226252 -0.228925,0.452504c0,0.22625 -0.228926,0.452502 -0.228926,0.678751c0,0.226252 -0.228925,0.226252 -0.228925,0.452504c0,0.22625 -0.067051,0.292518 -0.228925,0.452502c-0.161875,0.159983 0.087607,0.469723 0,0.678754c-0.123893,0.295609 -0.295976,0.292518 -0.457851,0.452502c-0.161875,0.159983 -0.105032,0.383142 -0.228925,0.678754c-0.087605,0.209028 0.161875,0.51877 0,0.678754c-0.161874,0.159983 -0.228925,0.22625 -0.228925,0.452502c0,0.226252 -0.228925,0.226252 -0.228925,0.452502c0,0.226252 -0.067051,0.292518 -0.228925,0.452502c-0.161875,0.159983 -0.067051,0.29252 -0.228926,0.452504c-0.161874,0.159983 0.161875,0.51877 0,0.678754c-0.161874,0.159983 -0.06705,0.292518 -0.228925,0.452502c-0.161874,0.159983 -0.228925,0.22625 -0.228925,0.452502c0,0.226252 -0.067051,0.292518 -0.228925,0.452502c-0.161875,0.159983 -0.067051,0.292518 -0.228926,0.452502c-0.161875,0.159983 -0.067051,0.29252 -0.228926,0.452504c-0.161874,0.159983 0.161875,0.51877 0,0.678754c-0.161874,0.159983 -0.06705,0.292518 -0.228925,0.452502c-0.161875,0.159983 -0.228926,0.22625 -0.228926,0.452502c0,0.226252 -0.228925,0.226252 -0.228925,0.452502c0,0.226252 -0.228926,0.226252 -0.228926,0.452504c0,0.22625 -0.06705,0.292518 -0.228925,0.452502c-0.161875,0.159983 -0.228926,0.22625 -0.228926,0.452502c0,0.226252 -0.228925,0.452502 -0.228925,0.678754c0,0.22625 -0.228926,0.22625 -0.228926,0.452502c0,0.226252 -0.067051,0.292518 -0.228925,0.452502c-0.161875,0.159983 -0.067051,0.29252 -0.228925,0.452504c-0.161874,0.159983 -0.067051,0.292518 -0.228926,0.452502c-0.161874,0.159983 -0.067051,0.292518 -0.228926,0.452502c-0.161874,0.159983 -0.105032,0.383142 -0.228925,0.678754c-0.087606,0.209026 0.457851,0.22625 0.686776,0.22625c0.228925,0 0.45785,0 0.686776,0c0.228925,0 0.457851,0 0.686776,0c0.457851,0 0.686776,0 0.915702,0c0.228926,0 0.457851,0 0.686776,0c0.228925,0 0.45785,0 0.686776,0c0.228925,0 0.251335,-0.186529 0.686775,-0.4525c0.194735,-0.118948 0.475278,0.086581 0.686776,0c0.299107,-0.122449 0.45785,-0.226254 0.686776,-0.226254c0.228925,0 0.45785,0 0.686775,0c0.228926,0 0.457851,0 0.686776,0c0.228925,0 0.45785,0 0.686776,0c0.228925,0 0.387671,-0.103805 0.686775,-0.22625c0.2115,-0.086583 0.457851,0 0.686776,0c0.228925,0 0.457851,0 0.686776,0c0.228925,0 0.38767,-0.103805 0.686776,-0.226252c0.211499,-0.086583 0.45785,0 0.686775,0c0.228925,0 0.524903,0.159983 0.686777,0c0.161874,-0.159983 0.228924,-0.22625 0.45785,-0.22625c0.228924,0 0.45785,0 0.686776,0l0.228924,0" id="svg_7" stroke-width="1.5" fill="none"/>
				  	<path d="m26.776597,17.904257c-0.638296,0 -0.851063,0 -1.063829,0c-0.212765,0 -0.487848,-0.150448 -0.638296,0c-0.451345,0.451344 -0.131344,0.654494 -0.212767,0.851064c-0.115149,0.277992 -0.48785,0.062317 -0.638298,0.212766c-0.150448,0.150449 -0.062319,0.275084 -0.212767,0.425532c-0.150448,0.150448 -0.062317,0.275084 -0.212765,0.425531c-0.150448,0.150448 -0.062319,0.275084 -0.212767,0.425531c-0.150448,0.150448 -0.212765,0.212767 -0.212765,0.425533c0,0.212765 -0.131344,0.22896 -0.212767,0.425531c-0.115149,0.277992 -0.275084,0.275084 -0.425531,0.425531c-0.150448,0.150448 0.150448,0.48785 0,0.638298c-0.150448,0.150448 -0.062319,0.275084 -0.212767,0.425531c-0.150448,0.150448 -0.275084,0.062319 -0.425531,0.212767c-0.150448,0.150448 0.150448,0.48785 0,0.638298c-0.150448,0.150448 -0.212767,0.212765 -0.212767,0.425531c0,0.212765 0.150448,0.48785 0,0.638298c-0.150448,0.150448 -0.212765,0.212765 -0.212765,0.425531c0,0.212767 -0.062319,0.275084 -0.212767,0.425531c-0.150448,0.150448 0,0.425531 0,0.638298c0,0.212767 0,0.425531 0,0.638298c0,0.212767 0,0.425531 0,0.638298c0,0.212765 0,0.425531 0,0.638298c0,0.212765 0,0.425531 0,0.638296c0,0.212767 0,0.425533 0,0.638298c0,0.212767 0,0.425533 0,0.638298c0,0.212767 0,0.425531 0,0.638298c0,0.212767 0,0.425531 0,0.638298c0,0.212767 0.124636,0.124636 0.425531,0.425531c0.150448,0.150448 0.062319,0.275084 0.212767,0.425531c0.150448,0.150448 0.212767,0.212767 0.425531,0.212767c0.212767,0 0.212767,0.212767 0.425531,0.212767c0.212767,0 0.228962,0.131342 0.425533,0.212765c0.277992,0.115149 0.487848,0.062319 0.638296,0.212767c0.150448,0.150448 0.275085,0.062317 0.425533,0.212765c0.150448,0.150448 0.212765,0.212767 0.425531,0.212767c0.212767,0 0.212767,0.212767 0.425531,0.212767c0.212767,0 0.425531,0 0.638298,0c0.212767,0 0.425531,0 0.638298,0c0.212765,0 0.425531,0 0.638298,0c0.212765,0 0.425531,0 0.638298,0c0.212765,0 0.425531,0 0.638296,0c0.212767,0 0.425533,0 0.638298,0c0.212767,0 0.425533,0 0.638298,0c0.212767,0 0.48785,0.150448 0.638298,0c0.451345,-0.451345 0.212767,-0.851065 0.425531,-0.851065c0.212767,0 0.212767,-0.212765 0.425531,-0.212765c0.212767,0 0.275085,-0.062319 0.425533,-0.212767c0.150448,-0.150448 0.22896,-0.131346 0.425531,-0.212767c0.277992,-0.115147 0.212767,-0.425531 0.425531,-0.425531c0.212767,0 0.062319,-0.275084 0.212767,-0.425531c0.150448,-0.150448 0.310383,-0.147539 0.425531,-0.425531c0.081423,-0.196571 0.212767,-0.212767 0.212767,-0.425533c0,-0.212765 0.062317,-0.275084 0.212765,-0.425531c0.150448,-0.150448 0,-0.425531 0,-0.638298c0,-0.212765 0,-0.425531 0,-0.638298c0,-0.212765 0.097618,-0.360304 0.212767,-0.638296c0.081423,-0.196571 0,-0.425533 0,-0.638298c0,-0.212767 0,-0.425531 0,-0.638298c0,-0.212767 0,-0.425531 0,-0.638298c0,-0.212767 0,-0.425531 0,-0.638298c0,-0.212765 0,-0.425531 0,-0.638298c0,-0.212765 0,-0.425531 0,-0.638298c0,-0.212765 0,-0.425531 0,-0.638296c0,-0.212767 0,-0.425533 0,-0.638298c0,-0.212767 0,-0.425531 0,-0.638298c0,-0.212767 -0.638298,-0.425531 -0.638298,-0.638298c0,-0.212767 -0.212767,-0.425531 -0.212767,-0.638298c0,-0.212765 -0.212765,-0.212765 -0.212765,-0.425531c0,-0.212767 -0.062319,-0.275084 -0.212767,-0.425531c-0.150448,-0.150448 -0.275084,-0.062319 -0.425531,-0.212767c-0.150448,-0.150448 -0.062319,-0.275084 -0.212767,-0.425531c-0.150448,-0.150448 -0.275084,-0.062319 -0.425531,-0.212767c-0.150448,-0.150448 -0.275084,-0.062319 -0.425531,-0.212766c-0.150448,-0.150448 -0.147541,-0.310384 -0.425531,-0.425531c-0.196571,-0.081423 -0.48785,0.150448 -0.638298,0c-0.150448,-0.150448 -0.062319,-0.275084 -0.212767,-0.425532c-0.150448,-0.150448 -0.48785,0.150449 -0.638298,0c-0.150448,-0.150448 -0.147539,-0.310384 -0.425531,-0.425531c-0.196571,-0.081422 -0.48785,0.150449 -0.638298,0c-0.150448,-0.150448 -0.212765,-0.212766 -0.425531,-0.212766l-0.212767,0l-0.212765,0l-0.212767,0" id="svg_8" stroke-width="1.5" stroke="#000" fill="none"/>
				  	<path d="m39.11702,18.542554c0,0.212767 0,0.425533 0,0.638298c0,0.212767 0,0.425531 0,0.638298c0,0.212767 0,0.425531 0,0.638298c0,0.212765 0,0.425531 0,0.638298c0,0.212765 0,0.425531 0,0.638298c0,0.212765 0,0.425531 0,0.638296c0,0.212767 0,0.425533 0,0.638298c0,0.212767 0,0.425531 0,0.638298c0,0.212767 0,0.425531 0,0.638298c0,0.212767 0,0.425531 0,0.638298c0,0.212765 0,0.425531 0,0.638298c0,0.212765 0,0.425531 0,0.638298c0,0.212765 0,0.425531 0,0.638296c0,0.212767 0,0.425533 0,0.638298c0,0.212767 0,0.425531 0,0.638298c0,0.212767 0,0.425531 0,0.638298c0,0.212767 0,0.425531 0,0.638298c0,0.212765 0,0.425531 0,0.638298c0,0.212765 0,0.425531 0,0.638298c0,0.212765 0,0.425531 0,0.638296c0,0.212767 0,0.425533 0,0.638298c0,0.212767 0,0.425531 0,0.638298c0,0.212767 0,0.425531 0,0.638298l0,0.212767" id="svg_9" stroke-width="1.5" stroke="#000" fill="none"/>
				  	<path d="m38.691489,11.946811c0.425533,0 0.638298,0 0.851063,0c0.212769,0 0.48785,0.150448 0.638298,0c0.150448,-0.150448 0.062317,-0.275082 0.212769,-0.425531c0.150448,-0.150448 0,-0.425532 0,-0.851064c0,-0.212766 0,-0.425532 0,-0.638298c0,-0.212766 -0.638298,-0.212766 -0.851067,-0.212766c-0.212765,0 -0.425529,0 -0.638294,0c-0.212769,0 -0.425533,0 -0.425533,0.638298c0,0.212766 -0.212765,0.212766 -0.212765,0.425532c0,0.212766 0,0.425532 0,0.638298l0,0.212766l0,0.212766l0.425529,0" id="svg_10" stroke-width="1.5" stroke="#000" fill="none"/>
				  	<path d="m46.563829,20.882979c0,0.638298 0,0.851065 0,1.063829c0,0.212767 0,0.425533 0,0.638298c0,0.212767 0,0.425533 0,0.638298c0,0.212767 0,0.425531 0,0.638298c0,0.212767 0,0.425531 0,0.638298c0,0.212765 0,0.425531 0,0.638298c0,0.212765 0,0.425531 0,0.638298c0,0.212765 0,0.425531 0,0.638296c0,0.212767 0,0.425533 0,0.638298c0,0.212767 0,0.425533 0,0.638298c0,0.212767 0,0.425531 0,0.638298c0,0.212767 0,0.425531 0,0.638298c0,0.212765 0,0.425531 0,0.638298c0,0.212765 0,0.425531 0,0.638298c0,0.212765 0,0.425531 0,0.638296c0,0.212767 0,0.425533 0,0.638298c0,0.212767 0,0.425533 0,0.638298c0,0.212767 0,0.425531 0,0.638298c0,0.212767 -0.212769,0.638298 0,0.638298c0.638298,0 0,-0.851065 0,-1.063829c0,-0.212767 0,-0.425531 0,-0.638298c0,-0.212767 0,-0.425531 0,-0.638298c0,-0.212767 0,-0.425531 0,-0.638298c0,-0.212765 0,-0.425531 0,-0.638298c0,-0.212765 0,-0.425531 0,-0.638298c0,-0.212765 0,-0.425531 0,-0.638296c0,-0.212767 0,-0.425533 0,-0.638298c0,-0.212767 0,-0.425531 0,-0.638298c0,-0.212767 0,-0.425531 0,-0.638298c0,-0.212767 0,-0.425531 0,-0.638298c0,-0.212765 0,-0.425531 0,-0.638298c0,-0.212765 0,-0.425531 0,-0.638298c0,-0.212765 0,-0.425531 0,-0.638296c0,-0.212767 -0.150448,-0.48785 0,-0.638298c0.300896,-0.300898 0.275085,-0.275084 0.425533,-0.425531c0.150448,-0.150448 0.275082,-0.062319 0.425529,-0.212767c0.150448,-0.150448 0.016197,-0.34411 0.212765,-0.425531c0.277996,-0.115149 0.275085,-0.275085 0.425533,-0.425533c0.150448,-0.150448 0.062317,-0.275084 0.212765,-0.425531c0.150448,-0.150448 0.212769,-0.212765 0.425533,-0.212765c0.212765,0 0.425533,0 0.638298,0c0.212765,0 -0.02581,0.186953 0.425533,0.638296c0.150448,0.150448 0.147537,0.310385 0.425529,0.425533c0.196568,0.081423 0.741756,0.175264 0.851063,0.638298c0.048882,0.207073 0.062321,0.275084 0.212769,0.425531c0.150448,0.150448 0.425529,0 0.425529,0.212765c0,0.212767 0.131348,0.441729 0.212769,0.638298c0.115147,0.277992 0.212765,0.425531 0.212765,0.638298c0,0.212767 0.212765,0.212767 0.212765,0.425531c0,0.212767 0,0.425533 0,0.638298c0,0.212767 0.212769,0.425531 0.212769,0.638298c0,0.212767 0,0.425531 0,0.638298c0,0.212767 -0.081421,0.441727 0,0.638298c0.115147,0.27799 0.212765,0.425531 0.212765,0.638298c0,0.212765 0,0.425531 0,0.638296c0,0.212767 0,0.425533 0,0.638298c0,0.212767 0.212765,0.638298 0.212765,0.851065c0,0.212765 0,0.425531 0,0.638298c0,0.212765 0.097618,0.360304 0.212769,0.638298c0.081421,0.196569 0,0.425531 0,0.638296c0,0.212767 0,0.425533 0,-0.212765c0,-0.212767 0,-0.425531 0,-0.638298c0,-0.212767 0,-0.425531 0,-0.638298c0,-0.212767 0,-0.425531 0,-0.638298c0,-0.212765 0,-0.425531 0,-0.638298c0,-0.212765 0,-0.425531 0,-0.638298c0,-0.212765 0,-0.425531 0,-0.638296c0,-0.212767 0,-0.425533 0,-0.851065c0,-0.212765 0,-0.425531 0,-0.638298c0,-0.212765 0,-0.425531 0,-0.638298c0,-0.212765 0,-0.425531 0,-0.638296c0,-0.212767 0,-0.425533 0,-0.638298c0,-0.212767 0,-0.425533 0,-0.638298c0,-0.212767 0,-0.425531 0,-0.638298c0,-0.212767 0,-0.425531 0,-0.638298c0,-0.212765 0,-0.425531 0,-0.638298c0,-0.212765 0,-0.425531 0,-0.638298c0,-0.212765 0.062317,-0.275084 0.212765,-0.425531c0.150448,-0.150448 0.062317,-0.275084 0.212765,-0.425531c0.150448,-0.150448 0.062317,-0.275084 0.212765,-0.425531c0.150452,-0.15045 0.48785,0.150448 0.638298,0c0.150448,-0.150448 0.212769,-0.212767 0.425533,-0.212767c0.212765,0 0.44173,0.081421 0.638298,0c0.277992,-0.115147 0.425533,-0.212765 0.638298,-0.212765c0.212765,0 0.425529,0 0.638298,0c0.212765,0 0.425529,0 0.638298,0c0.212765,0 0.425529,0 0.425529,0.638296c0,0.212767 0.310387,0.147541 0.425533,0.425533c0.081421,0.196569 0.131344,0.441727 0.212765,0.638296c0.11515,0.277994 0.062321,0.48785 0.212769,0.638298c0.150448,0.150448 0.212765,0.212767 0.212765,0.425533c0,0.212765 0.212765,0.425531 0.212765,0.638296c0,0.212767 0,0.425533 0,0.638298c0,0.212767 0,0.425531 0,0.638298c0,0.212767 0,0.425531 0,0.638298c0,0.212767 0,0.425531 0,0.638298c0,0.212765 0,0.425531 0,0.638298c0,0.212765 0,0.425531 0,0.638298c0,0.212765 0,0.425531 0,0.638296c0,0.212767 0,0.425533 0,0.638298c0,0.212767 0,0.425531 0,0.638298c0,0.212767 0,0.425531 0,0.638298c0,0.212767 0,0.425531 0,0.638298c0,0.212765 0,0.425531 0,0.638298c0,0.212765 0,0.425531 0,0.638298c0,0.212765 0,0.425531 0,0.638296l0,0.212767l0,0.212767" id="svg_11" stroke-width="1.5" stroke="#000" fill="none"/>
				  	<path d="m65.287228,20.88298c0,0.638298 0,0.851063 0,1.063829c0,0.212767 0,0.425531 0,0.638298c0,0.212767 0,0.425531 0,0.638298c0,0.212765 0,0.638298 0,0.851063c0,0.212767 0,0.425531 0,0.638298c0,0.212767 0,0.425531 0,0.638298c0,0.212767 0,0.425531 0,0.638298c0,0.212765 0,0.425531 0,0.638298c0,0.212765 0,0.425531 0,0.638298c0,0.212765 0,0.425531 0,0.638296c0,0.212767 0,0.425533 0,0.638298c0,0.212767 0.425533,0.425531 0.425533,0.638298c0,0.212767 0,0.425531 0,0.638298c0,0.212767 -0.150448,0.48785 0,0.638298c0.150448,0.150448 0.212765,0.212765 0.212765,0.425531c0,0.212767 0,0.425531 0,0.638298c0,0.212767 0,0.425531 0,0.638298c0,0.212765 0.212769,0.212765 0.212769,0.425531c0,0.212767 0,0.425531 0,0.638298l0,0.212765l0,0.212767l0.212765,0" id="svg_12" stroke-width="1.5" stroke="#000" fill="none"/>
				  	<path d="m64.648932,10.882982c-0.212765,0 -0.465694,-0.124406 -0.638298,0c-0.545822,0.393408 -0.425533,0.638297 -0.425533,0.851064c0,0.212766 -0.212765,0.212766 -0.212765,0.425531c0,0.212766 0,0.425532 0,0.638298c0,0.212766 0,0.425531 0,0.638297c0,0.212767 0,0.425532 0,0.638298c0,0.212766 0.425533,0.212766 0.638298,0.212766c0.212765,0 0.425533,0 0.638298,0c0.212765,0 0.062317,-0.487849 0.212765,-0.638297c0.150452,-0.15045 0.275085,-0.062319 0.425533,-0.212767c0.150448,-0.150448 0.062317,-0.275084 0.212765,-0.425531c0.150448,-0.150448 0,-0.425531 0,-0.638298c0,-0.212766 0,-0.425531 0,-0.638297l0,-0.212767l0,-0.212766l0,-0.212766" id="svg_13" stroke-width="1.5" stroke="#000" fill="none"/>
				  	<path d="m74.648931,21.521279c0,0.638296 0,0.851063 0,1.063829c0,0.212765 0,0.425531 0,0.638298c0,0.212765 0,0.425531 0,0.638296c0,0.212767 0,0.425533 0,0.638298c0,0.212767 0,0.425531 0,0.638298c0,0.212767 0,0.425531 0,0.638298c0,0.212767 0,0.425531 0,0.638298c0,0.212765 0,0.425531 0,0.638298c0,0.212765 0,0.425531 0,0.638298c0,0.212765 0,0.425531 0,0.638296c0,0.212767 0,0.425533 0,0.638298c0,0.212767 0,0.425531 0,0.638298c0,0.212767 0,0.425531 0,0.638298c0,0.212767 0,0.425531 0,0.638298c0,0.212765 0.425529,0.212765 0.425529,0.425531c0,0.212767 0,0.425531 0,0.638298c0,0.212767 0.212765,0.425531 0.212765,0.638298c0,0.212765 0,0.425531 0.212769,0.425531l0,0.212767" id="svg_14" stroke-width="1.5" stroke="#000" fill="none"/>
				  	<path d="m75.710466,10.670216c-0.212765,0 -0.425529,0 -0.638298,0c-0.212765,0 0.025814,0.186953 -0.425529,0.638298c-0.150452,0.15045 -0.062321,0.275084 -0.212769,0.425531c-0.150448,0.150448 -0.212765,0.212766 -0.212765,0.425532c0,0.212766 0,0.425531 0,0.638297c0,0.212767 0,0.425532 0,0.638298c0,0.212766 0,0.425531 0,0.638298c0,0.212766 -0.150448,0.487849 0,0.638297c0.300896,0.300898 0.638298,0 0.851063,0c0.212769,0 0.425533,0 0.638298,0c0.212765,0 0.425533,0 0.425533,-0.638297c0,-0.212767 0,-0.425532 0,-0.638298c0,-0.212766 0.212765,-0.212766 0.212765,-0.425531c0,-0.212767 -0.081421,-0.441728 0,-0.638298c0.115147,-0.277991 0.212765,-0.425532 0.212765,-0.638298c0,-0.212766 -0.638298,-0.212766 -0.851063,-0.212766l0,-0.212766l-0.212765,0" id="svg_15" stroke-width="1.5" stroke="#000" fill="none"/>
				</g>
			</svg>